<svg width="26" height="22" viewBox="0 0 26 22" fill="none" xmlns="http://www.w3.org/2000/svg">
<g opacity="0.5">
<path d="M9.94445 1.83334C10.507 1.83334 10.963 2.24375 10.963 2.75001V3.66668H15.037V2.75001C15.037 2.24375 15.493 1.83334 16.0556 1.83334C16.6181 1.83334 17.0741 2.24375 17.0741 2.75001V3.66668H20.1296C21.2547 3.66668 22.1667 4.48749 22.1667 5.50001V17.4167C22.1667 18.4292 21.2547 19.25 20.1296 19.25H5.87037C4.74535 19.25 3.83334 18.4292 3.83334 17.4167V5.50001C3.83334 4.48749 4.74535 3.66668 5.87037 3.66668H8.92593V2.75001C8.92593 2.24375 9.38194 1.83334 9.94445 1.83334ZM8.92593 5.50001H5.87037V8.25001H20.1296V5.50001H17.0741V6.41668C17.0741 6.92294 16.6181 7.33334 16.0556 7.33334C15.493 7.33334 15.037 6.92294 15.037 6.41668V5.50001H10.963V6.41668C10.963 6.92294 10.507 7.33334 9.94445 7.33334C9.38194 7.33334 8.92593 6.92294 8.92593 6.41668V5.50001ZM20.1296 10.0833H5.87037V17.4167H20.1296V10.0833Z" fill="white"/>
</g>
</svg>
