<svg width="26" height="22" viewBox="0 0 26 22" fill="none" xmlns="http://www.w3.org/2000/svg">
<g opacity="0.5">
<path d="M13 3.66666C10.75 3.66666 8.92593 5.30828 8.92593 7.33333C8.92593 9.35837 10.75 11 13 11C15.2501 11 17.0741 9.35837 17.0741 7.33333C17.0741 5.30828 15.2501 3.66666 13 3.66666ZM6.88889 7.33333C6.88889 4.29576 9.62493 1.83333 13 1.83333C16.3751 1.83333 19.1111 4.29576 19.1111 7.33333C19.1111 10.3709 16.3751 12.8333 13 12.8333C9.62493 12.8333 6.88889 10.3709 6.88889 7.33333ZM8.92593 16.5C7.23839 16.5 5.87037 17.7312 5.87037 19.25C5.87037 19.7563 5.41437 20.1667 4.85185 20.1667C4.28934 20.1667 3.83334 19.7563 3.83334 19.25C3.83334 16.7187 6.11337 14.6667 8.92593 14.6667H17.0741C19.8866 14.6667 22.1667 16.7187 22.1667 19.25C22.1667 19.7563 21.7107 20.1667 21.1482 20.1667C20.5856 20.1667 20.1296 19.7563 20.1296 19.25C20.1296 17.7312 18.7616 16.5 17.0741 16.5H8.92593Z" fill="white"/>
</g>
</svg>
