<svg width="26" height="22" viewBox="0 0 26 22" fill="none" xmlns="http://www.w3.org/2000/svg">
<g opacity="0.5">
<path d="M9.94444 4.58333C9.38193 4.58333 8.92593 4.99374 8.92593 5.5C8.92593 6.00626 9.38193 6.41667 9.94444 6.41667C10.507 6.41667 10.963 6.00626 10.963 5.5C10.963 4.99374 10.507 4.58333 9.94444 4.58333ZM7.06276 4.58333C7.48222 3.51524 8.61404 2.75 9.94444 2.75C11.2749 2.75 12.4067 3.51524 12.8261 4.58333H20.1296C20.6921 4.58333 21.1481 4.99374 21.1481 5.5C21.1481 6.00626 20.6921 6.41667 20.1296 6.41667H12.8261C12.4067 7.48476 11.2749 8.25 9.94444 8.25C8.61404 8.25 7.48222 7.48476 7.06276 6.41667H5.87037C5.30786 6.41667 4.85185 6.00626 4.85185 5.5C4.85185 4.99374 5.30786 4.58333 5.87037 4.58333H7.06276ZM16.0556 10.0833C15.493 10.0833 15.037 10.4937 15.037 11C15.037 11.5063 15.493 11.9167 16.0556 11.9167C16.6181 11.9167 17.0741 11.5063 17.0741 11C17.0741 10.4937 16.6181 10.0833 16.0556 10.0833ZM13.1739 10.0833C13.5933 9.01524 14.7251 8.25 16.0556 8.25C17.386 8.25 18.5178 9.01524 18.9372 10.0833H20.1296C20.6921 10.0833 21.1481 10.4937 21.1481 11C21.1481 11.5063 20.6921 11.9167 20.1296 11.9167H18.9372C18.5178 12.9848 17.386 13.75 16.0556 13.75C14.7251 13.75 13.5933 12.9848 13.1739 11.9167H5.87037C5.30786 11.9167 4.85185 11.5063 4.85185 11C4.85185 10.4937 5.30786 10.0833 5.87037 10.0833H13.1739ZM9.94444 15.5833C9.38193 15.5833 8.92593 15.9937 8.92593 16.5C8.92593 17.0063 9.38193 17.4167 9.94444 17.4167C10.507 17.4167 10.963 17.0063 10.963 16.5C10.963 15.9937 10.507 15.5833 9.94444 15.5833ZM7.06276 15.5833C7.48222 14.5152 8.61404 13.75 9.94444 13.75C11.2749 13.75 12.4067 14.5152 12.8261 15.5833H20.1296C20.6921 15.5833 21.1481 15.9937 21.1481 16.5C21.1481 17.0063 20.6921 17.4167 20.1296 17.4167H12.8261C12.4067 18.4848 11.2749 19.25 9.94444 19.25C8.61404 19.25 7.48222 18.4848 7.06276 17.4167H5.87037C5.30786 17.4167 4.85185 17.0063 4.85185 16.5C4.85185 15.9937 5.30786 15.5833 5.87037 15.5833H7.06276Z" fill="white"/>
</g>
</svg>
